<svg width="34" height="30" viewBox="0 0 34 30" fill="none" xmlns="http://www.w3.org/2000/svg">
<path d="M0 0H33.75V30H0V0Z" stroke="#E5E7EB"/>
<path d="M32.0859 6.08203L28.7285 0.767578C28.4297 0.292969 27.8965 0 27.3281 0H6.42187C5.85351 0 5.3203 0.292969 5.02148 0.767578L1.6582 6.08203C-0.0761794 8.82422 1.45898 12.6387 4.69921 13.0781C4.93359 13.1074 5.17382 13.125 5.4082 13.125C6.93749 13.125 8.29687 12.457 9.22851 11.4258C10.1601 12.457 11.5195 13.125 13.0488 13.125C14.5781 13.125 15.9375 12.457 16.8691 11.4258C17.8008 12.457 19.1602 13.125 20.6894 13.125C22.2246 13.125 23.5781 12.457 24.5098 11.4258C25.4473 12.457 26.8008 13.125 28.3301 13.125C28.5703 13.125 28.8047 13.1074 29.0391 13.0781C32.291 12.6445 33.832 8.83008 32.0918 6.08203H32.0859ZM29.2793 14.9355H29.2734C28.9629 14.9766 28.6465 15 28.3242 15C27.5976 15 26.9004 14.8887 26.25 14.6895V22.5H7.49999V14.6836C6.84374 14.8887 6.14062 15 5.41405 15C5.09179 15 4.76952 14.9766 4.45898 14.9355H4.45312C4.21288 14.9004 3.97851 14.8594 3.74999 14.8008V22.5V26.25C3.74999 28.3184 5.43163 30 7.49999 30H26.25C28.3184 30 30 28.3184 30 26.25V22.5V14.8008C29.7656 14.8594 29.5312 14.9062 29.2793 14.9355Z" fill="#4F46E5"/>
</svg>
