<svg width="24" height="24" viewBox="0 0 24 24" fill="none" xmlns="http://www.w3.org/2000/svg">
<path fill-rule="evenodd" clip-rule="evenodd" d="M6.27592 8.652C6.44783 8.48661 6.67838 8.39623 6.91689 8.40073C7.1554 8.40523 7.38237 8.50424 7.54792 8.676L11.9999 13.4016L16.4519 8.676C16.5328 8.58679 16.6309 8.51473 16.7401 8.46409C16.8494 8.41345 16.9678 8.38526 17.0881 8.38119C17.2085 8.37712 17.3285 8.39726 17.4409 8.44041C17.5534 8.48356 17.6561 8.54884 17.7428 8.63239C17.8296 8.71594 17.8987 8.81605 17.946 8.9268C17.9934 9.03754 18.0181 9.15667 18.0185 9.27712C18.019 9.39756 17.9953 9.51688 17.9488 9.628C17.9023 9.73912 17.834 9.83977 17.7479 9.924L12.6479 15.324C12.564 15.4111 12.4633 15.4804 12.352 15.5277C12.2406 15.575 12.1209 15.5994 11.9999 15.5994C11.8789 15.5994 11.7592 15.575 11.6479 15.5277C11.5365 15.4804 11.4359 15.4111 11.3519 15.324L6.25192 9.924C6.08653 9.75209 5.99615 9.52155 6.00065 9.28304C6.00515 9.04452 6.10416 8.81755 6.27592 8.652Z" fill="black"/>
</svg>
