<svg width="16" height="16" viewBox="0 0 16 16" fill="none" xmlns="http://www.w3.org/2000/svg">
<g clip-path="url(#clip0_3_1624)">
<path d="M8 6L6.76562 4.76562C6.91875 4.37187 7 3.94688 7 3.5C7 1.56562 5.43437 0 3.5 0C1.56562 0 0 1.56562 0 3.5C0 5.43437 1.56562 7 3.5 7C3.94688 7 4.37187 6.91563 4.76562 6.76562L6 8L4.76562 9.23438C4.37187 9.08125 3.94688 9 3.5 9C1.56562 9 0 10.5656 0 12.5C0 14.4344 1.56562 16 3.5 16C5.43437 16 7 14.4344 7 12.5C7 12.0531 6.91563 11.6281 6.76562 11.2344L15.6 2.4C15.8219 2.17813 15.8219 1.82187 15.6 1.6C14.7156 0.715625 13.2844 0.715625 12.4 1.6L8 6ZM8.70625 10.7063L12.4 14.4C13.2844 15.2844 14.7156 15.2844 15.6 14.4C15.8219 14.1781 15.8219 13.8219 15.6 13.6L10.7063 8.70625L8.70625 10.7063ZM2 3.5C2 3.30302 2.0388 3.10796 2.11418 2.92597C2.18956 2.74399 2.30005 2.57863 2.43934 2.43934C2.57863 2.30005 2.74399 2.18956 2.92597 2.11418C3.10796 2.0388 3.30302 2 3.5 2C3.69698 2 3.89204 2.0388 4.07403 2.11418C4.25601 2.18956 4.42137 2.30005 4.56066 2.43934C4.69995 2.57863 4.81044 2.74399 4.88582 2.92597C4.9612 3.10796 5 3.30302 5 3.5C5 3.69698 4.9612 3.89204 4.88582 4.07403C4.81044 4.25601 4.69995 4.42137 4.56066 4.56066C4.42137 4.69995 4.25601 4.81044 4.07403 4.88582C3.89204 4.9612 3.69698 5 3.5 5C3.30302 5 3.10796 4.9612 2.92597 4.88582C2.74399 4.81044 2.57863 4.69995 2.43934 4.56066C2.30005 4.42137 2.18956 4.25601 2.11418 4.07403C2.0388 3.89204 2 3.69698 2 3.5ZM3.5 11C3.69698 11 3.89204 11.0388 4.07403 11.1142C4.25601 11.1896 4.42137 11.3001 4.56066 11.4393C4.69995 11.5786 4.81044 11.744 4.88582 11.926C4.9612 12.108 5 12.303 5 12.5C5 12.697 4.9612 12.892 4.88582 13.074C4.81044 13.256 4.69995 13.4214 4.56066 13.5607C4.42137 13.6999 4.25601 13.8104 4.07403 13.8858C3.89204 13.9612 3.69698 14 3.5 14C3.30302 14 3.10796 13.9612 2.92597 13.8858C2.74399 13.8104 2.57863 13.6999 2.43934 13.5607C2.30005 13.4214 2.18956 13.256 2.11418 13.074C2.0388 12.892 2 12.697 2 12.5C2 12.303 2.0388 12.108 2.11418 11.926C2.18956 11.744 2.30005 11.5786 2.43934 11.4393C2.57863 11.3001 2.74399 11.1896 2.92597 11.1142C3.10796 11.0388 3.30302 11 3.5 11Z" fill="#374151"/>
</g>
<defs>
<clipPath id="clip0_3_1624">
<path d="M0 0H16V16H0V0Z" fill="white"/>
</clipPath>
</defs>
</svg>
