<svg width="18" height="16" viewBox="0 0 18 16" fill="none" xmlns="http://www.w3.org/2000/svg">
<g clip-path="url(#clip0_1_552)">
<path d="M8.99711 0C9.28461 0 9.54711 0.1625 9.67211 0.421875L11.8159 4.8375L16.6034 5.54375C16.8846 5.58437 17.119 5.78125 17.2065 6.05312C17.294 6.325 17.2221 6.61875 17.0221 6.81875L13.5502 10.2625L14.369 15.125C14.4159 15.4062 14.3002 15.6906 14.069 15.8594C13.8377 16.0281 13.5284 16.0469 13.2784 15.9125L8.99711 13.625L4.71898 15.9094C4.46586 16.0438 4.15961 16.025 3.92836 15.8562C3.69711 15.6875 3.57836 15.4031 3.62523 15.1219L4.44398 10.2594L0.972108 6.81875C0.768983 6.61875 0.700233 6.32188 0.787733 6.05312C0.875233 5.78437 1.10961 5.5875 1.39086 5.54375L6.17836 4.8375L8.32211 0.421875C8.45023 0.1625 8.70961 0 8.99711 0ZM8.99711 2.46875L7.35648 5.85C7.24711 6.07188 7.03773 6.22813 6.79086 6.26562L3.09398 6.80937L5.77836 9.46875C5.95023 9.64062 6.03148 9.88437 5.99086 10.125L5.35648 13.8656L8.64398 12.1094C8.86586 11.9906 9.13148 11.9906 9.35023 12.1094L12.6377 13.8656L12.0065 10.1281C11.9659 9.8875 12.044 9.64375 12.219 9.47188L14.9034 6.8125L11.2065 6.26562C10.9627 6.22813 10.7502 6.075 10.6409 5.85L8.99711 2.46875Z" fill="#FBBF24"/>
</g>
<defs>
<clipPath id="clip0_1_552">
<path d="M0 0H18V16H0V0Z" fill="white"/>
</clipPath>
</defs>
</svg>
