<svg width="11" height="14" viewBox="0 0 11 14" fill="none" xmlns="http://www.w3.org/2000/svg">
<g clip-path="url(#clip0_1_447)">
<path d="M5.86807 1.13202C5.52627 0.790222 4.97119 0.790222 4.6294 1.13202L0.254395 5.50702C-0.0874024 5.84882 -0.0874024 6.40389 0.254395 6.74569C0.596191 7.08749 1.15127 7.08749 1.49307 6.74569L4.3751 3.86093V12.25C4.3751 12.734 4.76611 13.125 5.2501 13.125C5.73408 13.125 6.1251 12.734 6.1251 12.25V3.86093L9.00713 6.74296C9.34893 7.08475 9.90401 7.08475 10.2458 6.74296C10.5876 6.40116 10.5876 5.84608 10.2458 5.50428L5.8708 1.12928L5.86807 1.13202Z" fill="#059669"/>
</g>
<defs>
<clipPath id="clip0_1_447">
<path d="M0 0H10.5V14H0V0Z" fill="white"/>
</clipPath>
</defs>
</svg>
