<svg width="18" height="16" viewBox="0 0 18 16" fill="none" xmlns="http://www.w3.org/2000/svg">
<g clip-path="url(#clip0_42_3977)">
<path d="M8.99686 0C9.28436 0 9.54686 0.1625 9.67186 0.421875L11.8156 4.8375L16.6031 5.54375C16.8844 5.58437 17.1187 5.78125 17.2062 6.05312C17.2937 6.325 17.2219 6.61875 17.0219 6.81875L13.55 10.2625L14.3687 15.125C14.4156 15.4062 14.3 15.6906 14.0687 15.8594C13.8375 16.0281 13.5281 16.0469 13.2781 15.9125L8.99686 13.625L4.71874 15.9094C4.46561 16.0438 4.15936 16.025 3.92811 15.8562C3.69686 15.6875 3.57811 15.4031 3.62499 15.1219L4.44374 10.2594L0.971864 6.81875C0.768739 6.61875 0.699989 6.32188 0.787489 6.05312C0.874989 5.78437 1.10936 5.5875 1.39061 5.54375L6.17811 4.8375L8.32186 0.421875C8.44999 0.1625 8.70936 0 8.99686 0ZM8.99686 2.46875L7.35624 5.85C7.24686 6.07188 7.03749 6.22813 6.79061 6.26562L3.09374 6.80937L5.77811 9.46875C5.94999 9.64062 6.03124 9.88437 5.99061 10.125L5.35624 13.8656L8.64374 12.1094C8.86561 11.9906 9.13124 11.9906 9.34999 12.1094L12.6375 13.8656L12.0062 10.1281C11.9656 9.8875 12.0437 9.64375 12.2187 9.47188L14.9031 6.8125L11.2062 6.26562C10.9625 6.22813 10.75 6.075 10.6406 5.85L8.99686 2.46875Z" fill="#FBBF24"/>
</g>
<defs>
<clipPath id="clip0_42_3977">
<path d="M0 0H18V16H0V0Z" fill="white"/>
</clipPath>
</defs>
</svg>
