<svg width="20" height="16" viewBox="0 0 20 16" fill="none" xmlns="http://www.w3.org/2000/svg">
<g clip-path="url(#clip0_1_635)">
<path d="M10.0001 11.7625L10.0032 11.7594L10.8282 12.2L13.4907 13.6219L12.9751 10.5719L12.8251 9.675L13.4719 9.03438L15.6626 6.86875L12.6594 6.425L11.7438 6.29063L11.3407 5.45937L10.0032 2.71563L10.0001 2.725V11.7625ZM15.4719 14.8344C15.5344 15.2094 15.3782 15.5906 15.0688 15.8125C14.7594 16.0344 14.3501 16.0625 14.0126 15.8844L10.0032 13.7437L5.9938 15.8844C5.6563 16.0625 5.24693 16.0344 4.93755 15.8125C4.62818 15.5906 4.47193 15.2094 4.53443 14.8344L5.3063 10.2812L2.05005 7.05937C1.7813 6.79375 1.68443 6.39687 1.80318 6.0375C1.92193 5.67812 2.2313 5.41563 2.6063 5.35938L7.0938 4.69688L9.1063 0.5625C9.27505 0.21875 9.62193 0 10.0063 0C10.3907 0 10.7376 0.21875 10.9063 0.5625L12.9157 4.69688L17.4032 5.35938C17.7782 5.41563 18.0907 5.67812 18.2063 6.0375C18.3219 6.39687 18.2282 6.79375 17.9594 7.05937L14.7032 10.2812L15.4719 14.8344Z" fill="#FBBF24"/>
</g>
<defs>
<clipPath id="clip0_1_635">
<path d="M0 0H20V16H0V0Z" fill="white"/>
</clipPath>
</defs>
</svg>
